<svg width="72" height="72" viewBox="0 0 72 72" fill="none" xmlns="http://www.w3.org/2000/svg">
<mask id="mask0_224750_1318" style="mask-type:alpha" maskUnits="userSpaceOnUse" x="0" y="0" width="72" height="72">
<circle cx="36" cy="36" r="36" fill="#D9D9D9"/>
</mask>
<g mask="url(#mask0_224750_1318)">
<rect x="76.5396" y="-0.0351562" width="3.18509" height="6.37017" transform="rotate(135 76.5396 -0.0351562)" fill="#272A31"/>
<rect x="63.0261" y="-0.0354004" width="3.18509" height="6.37017" transform="rotate(135 63.0261 -0.0354004)" fill="#272A31"/>
<rect x="69.7827" y="6.72119" width="3.18509" height="6.37017" transform="rotate(135 69.7827 6.72119)" fill="#272A31"/>
<rect x="76.5393" y="13.4778" width="3.18509" height="6.37017" transform="rotate(135 76.5393 13.4778)" fill="#272A31"/>
<rect x="49.5129" y="-0.0352173" width="3.18509" height="6.37017" transform="rotate(135 49.5129 -0.0352173)" fill="#272A31"/>
<rect x="56.2695" y="6.72137" width="3.18509" height="6.37017" transform="rotate(135 56.2695 6.72137)" fill="#272A31"/>
<rect x="63.0261" y="13.478" width="3.18509" height="6.37017" transform="rotate(135 63.0261 13.478)" fill="#272A31"/>
<rect x="69.7827" y="20.2346" width="3.18509" height="6.37017" transform="rotate(135 69.7827 20.2346)" fill="#272A31"/>
<rect x="76.5393" y="26.9911" width="3.18509" height="6.37017" transform="rotate(135 76.5393 26.9911)" fill="#272A31"/>
<rect x="35.9998" y="-0.0354004" width="3.18509" height="6.37017" transform="rotate(135 35.9998 -0.0354004)" fill="#272A31"/>
<rect x="42.7563" y="6.72119" width="3.18509" height="6.37017" transform="rotate(135 42.7563 6.72119)" fill="#272A31"/>
<rect x="49.5132" y="13.4778" width="3.18509" height="6.37017" transform="rotate(135 49.5132 13.4778)" fill="#272A31"/>
<rect x="56.2698" y="20.2344" width="3.18509" height="6.37017" transform="rotate(135 56.2698 20.2344)" fill="#272A31"/>
<rect x="63.0264" y="26.991" width="3.18509" height="6.37017" transform="rotate(135 63.0264 26.991)" fill="#272A31"/>
<rect x="69.7827" y="33.7476" width="3.18509" height="6.37017" transform="rotate(135 69.7827 33.7476)" fill="#272A31"/>
<rect x="76.5393" y="40.5042" width="3.18509" height="6.37017" transform="rotate(135 76.5393 40.5042)" fill="#272A31"/>
<rect x="22.4866" y="-0.0350342" width="3.18509" height="6.37017" transform="rotate(135 22.4866 -0.0350342)" fill="#272A31"/>
<rect x="29.2432" y="6.72156" width="3.18509" height="6.37017" transform="rotate(135 29.2432 6.72156)" fill="#272A31"/>
<rect x="35.9998" y="13.4781" width="3.18509" height="6.37017" transform="rotate(135 35.9998 13.4781)" fill="#272A31"/>
<rect x="42.7563" y="20.2347" width="3.18509" height="6.37017" transform="rotate(135 42.7563 20.2347)" fill="#272A31"/>
<rect x="49.5129" y="26.9913" width="3.18509" height="6.37017" transform="rotate(135 49.5129 26.9913)" fill="#272A31"/>
<rect x="56.2695" y="33.7479" width="3.18509" height="6.37017" transform="rotate(135 56.2695 33.7479)" fill="#272A31"/>
<rect x="63.0261" y="40.5045" width="3.18509" height="6.37017" transform="rotate(135 63.0261 40.5045)" fill="#272A31"/>
<rect x="69.7827" y="47.261" width="3.18509" height="6.37017" transform="rotate(135 69.7827 47.261)" fill="#272A31"/>
<rect x="76.5393" y="54.0176" width="3.18509" height="6.37017" transform="rotate(135 76.5393 54.0176)" fill="#272A31"/>
<rect x="8.97339" y="-0.0351562" width="3.18509" height="6.37017" transform="rotate(135 8.97339 -0.0351562)" fill="#272A31"/>
<rect x="15.73" y="6.72144" width="3.18509" height="6.37017" transform="rotate(135 15.73 6.72144)" fill="#272A31"/>
<rect x="22.4866" y="13.478" width="3.18509" height="6.37017" transform="rotate(135 22.4866 13.478)" fill="#272A31"/>
<rect x="29.2432" y="20.2346" width="3.18509" height="6.37017" transform="rotate(135 29.2432 20.2346)" fill="#272A31"/>
<rect x="35.9998" y="26.9912" width="3.18509" height="6.37017" transform="rotate(135 35.9998 26.9912)" fill="#272A31"/>
<rect x="42.7563" y="33.7478" width="3.18509" height="6.37017" transform="rotate(135 42.7563 33.7478)" fill="#272A31"/>
<rect x="49.5129" y="40.5044" width="3.18509" height="6.37017" transform="rotate(135 49.5129 40.5044)" fill="#272A31"/>
<rect x="56.2693" y="47.2609" width="3.18509" height="6.37017" transform="rotate(135 56.2693 47.2609)" fill="#272A31"/>
<rect x="63.0261" y="54.0175" width="3.18509" height="6.37017" transform="rotate(135 63.0261 54.0175)" fill="#272A31"/>
<rect x="69.7827" y="60.7741" width="3.18509" height="6.37017" transform="rotate(135 69.7827 60.7741)" fill="#272A31"/>
<rect x="76.5393" y="67.5307" width="3.18509" height="6.37017" transform="rotate(135 76.5393 67.5307)" fill="#272A31"/>
<rect x="2.2168" y="6.72156" width="3.18509" height="6.37017" transform="rotate(135 2.2168 6.72156)" fill="#272A31"/>
<rect x="8.97339" y="13.4781" width="3.18509" height="6.37017" transform="rotate(135 8.97339 13.4781)" fill="#272A31"/>
<rect x="15.73" y="20.2347" width="3.18509" height="6.37017" transform="rotate(135 15.73 20.2347)" fill="#272A31"/>
<rect x="22.4866" y="26.9913" width="3.18509" height="6.37017" transform="rotate(135 22.4866 26.9913)" fill="#272A31"/>
<rect x="29.2432" y="33.7479" width="3.18509" height="6.37017" transform="rotate(135 29.2432 33.7479)" fill="#272A31"/>
<rect x="36" y="40.5045" width="3.18509" height="6.37017" transform="rotate(135 36 40.5045)" fill="#272A31"/>
<rect x="42.7566" y="47.2611" width="3.18509" height="6.37017" transform="rotate(135 42.7566 47.2611)" fill="#272A31"/>
<rect x="49.5129" y="54.0176" width="3.18509" height="6.37017" transform="rotate(135 49.5129 54.0176)" fill="#272A31"/>
<rect x="56.2695" y="60.7742" width="3.18509" height="6.37017" transform="rotate(135 56.2695 60.7742)" fill="#272A31"/>
<rect x="63.0261" y="67.5308" width="3.18509" height="6.37017" transform="rotate(135 63.0261 67.5308)" fill="#272A31"/>
<rect x="69.7827" y="74.2874" width="3.18509" height="6.37017" transform="rotate(135 69.7827 74.2874)" fill="#272A31"/>
<rect x="2.2168" y="20.2346" width="3.18509" height="6.37017" transform="rotate(135 2.2168 20.2346)" fill="#272A31"/>
<rect x="8.97339" y="26.9911" width="3.18509" height="6.37017" transform="rotate(135 8.97339 26.9911)" fill="#272A31"/>
<rect x="15.73" y="33.7477" width="3.18509" height="6.37017" transform="rotate(135 15.73 33.7477)" fill="#272A31"/>
<rect x="22.4866" y="40.5043" width="3.18509" height="6.37017" transform="rotate(135 22.4866 40.5043)" fill="#272A31"/>
<rect x="29.2432" y="47.2609" width="3.18509" height="6.37017" transform="rotate(135 29.2432 47.2609)" fill="#272A31"/>
<rect x="35.9998" y="54.0175" width="3.18509" height="6.37017" transform="rotate(135 35.9998 54.0175)" fill="#272A31"/>
<rect x="42.7563" y="60.7741" width="3.18509" height="6.37017" transform="rotate(135 42.7563 60.7741)" fill="#272A31"/>
<rect x="49.5129" y="67.5307" width="3.18509" height="6.37017" transform="rotate(135 49.5129 67.5307)" fill="#272A31"/>
<rect x="56.2695" y="74.2873" width="3.18509" height="6.37017" transform="rotate(135 56.2695 74.2873)" fill="#272A31"/>
<rect x="2.2168" y="33.7479" width="3.18509" height="6.37017" transform="rotate(135 2.2168 33.7479)" fill="#272A31"/>
<rect x="8.97339" y="40.5045" width="3.18509" height="6.37017" transform="rotate(135 8.97339 40.5045)" fill="#272A31"/>
<rect x="15.73" y="47.261" width="3.18509" height="6.37017" transform="rotate(135 15.73 47.261)" fill="#272A31"/>
<rect x="22.4866" y="54.0176" width="3.18509" height="6.37017" transform="rotate(135 22.4866 54.0176)" fill="#272A31"/>
<rect x="29.2432" y="60.7742" width="3.18509" height="6.37017" transform="rotate(135 29.2432 60.7742)" fill="#272A31"/>
<rect x="35.9998" y="67.5308" width="3.18509" height="6.37017" transform="rotate(135 35.9998 67.5308)" fill="#272A31"/>
<rect x="42.7563" y="74.2874" width="3.18509" height="6.37017" transform="rotate(135 42.7563 74.2874)" fill="#272A31"/>
<rect x="2.2168" y="47.261" width="3.18509" height="6.37017" transform="rotate(135 2.2168 47.261)" fill="#272A31"/>
<rect x="8.97339" y="54.0176" width="3.18509" height="6.37017" transform="rotate(135 8.97339 54.0176)" fill="#272A31"/>
<rect x="15.7302" y="60.7742" width="3.18509" height="6.37017" transform="rotate(135 15.7302 60.7742)" fill="#272A31"/>
<rect x="22.4868" y="67.5308" width="3.18509" height="6.37017" transform="rotate(135 22.4868 67.5308)" fill="#272A31"/>
<rect x="29.2432" y="74.2873" width="3.18509" height="6.37017" transform="rotate(135 29.2432 74.2873)" fill="#272A31"/>
<rect x="2.21704" y="60.774" width="3.18509" height="6.37017" transform="rotate(135 2.21704 60.774)" fill="#272A31"/>
<rect x="8.97363" y="67.5306" width="3.18509" height="6.37017" transform="rotate(135 8.97363 67.5306)" fill="#272A31"/>
<rect x="15.7302" y="74.2872" width="3.18509" height="6.37017" transform="rotate(135 15.7302 74.2872)" fill="#272A31"/>
<rect x="2.2168" y="74.2872" width="3.18509" height="6.37017" transform="rotate(135 2.2168 74.2872)" fill="#272A31"/>
<rect x="72.0354" y="76.5392" width="3.18509" height="6.37017" transform="rotate(-135 72.0354 76.5392)" fill="#EE523C"/>
<rect x="72.0354" y="63.0264" width="3.18509" height="6.37017" transform="rotate(-135 72.0354 63.0264)" fill="#EE523C"/>
<rect x="65.2788" y="69.7828" width="3.18509" height="6.37017" transform="rotate(-135 65.2788 69.7828)" fill="#EE523C"/>
<rect x="58.5222" y="76.5396" width="3.18509" height="6.37017" transform="rotate(-135 58.5222 76.5396)" fill="#EE523C"/>
<rect x="72.0354" y="49.5129" width="3.18509" height="6.37017" transform="rotate(-135 72.0354 49.5129)" fill="#EE523C"/>
<rect x="65.2788" y="56.2697" width="3.18509" height="6.37017" transform="rotate(-135 65.2788 56.2697)" fill="#EE523C"/>
<rect x="58.5222" y="63.0261" width="3.18509" height="6.37017" transform="rotate(-135 58.5222 63.0261)" fill="#EE523C"/>
<rect x="51.7656" y="69.7829" width="3.18509" height="6.37017" transform="rotate(-135 51.7656 69.7829)" fill="#EE523C"/>
<rect x="45.009" y="76.5393" width="3.18509" height="6.37017" transform="rotate(-135 45.009 76.5393)" fill="#EE523C"/>
<rect x="72.0354" y="35.9998" width="3.18509" height="6.37017" transform="rotate(-135 72.0354 35.9998)" fill="#EE523C"/>
<rect x="65.2788" y="42.7563" width="3.18509" height="6.37017" transform="rotate(-135 65.2788 42.7563)" fill="#EE523C"/>
<rect x="58.5222" y="49.5131" width="3.18509" height="6.37017" transform="rotate(-135 58.5222 49.5131)" fill="#EE523C"/>
<rect x="51.7656" y="56.2695" width="3.18509" height="6.37017" transform="rotate(-135 51.7656 56.2695)" fill="#EE523C"/>
<rect x="45.009" y="63.0263" width="3.18509" height="6.37017" transform="rotate(-135 45.009 63.0263)" fill="#EE523C"/>
<rect x="38.2524" y="69.7827" width="3.18509" height="6.37017" transform="rotate(-135 38.2524 69.7827)" fill="#EE523C"/>
<rect x="31.4958" y="76.5395" width="3.18509" height="6.37017" transform="rotate(-135 31.4958 76.5395)" fill="#EE523C"/>
<rect x="72.0352" y="22.4868" width="3.18509" height="6.37017" transform="rotate(-135 72.0352 22.4868)" fill="#EE523C"/>
<rect x="65.2788" y="29.2432" width="3.18509" height="6.37017" transform="rotate(-135 65.2788 29.2432)" fill="#EE523C"/>
<rect x="58.5222" y="35.9996" width="3.18509" height="6.37017" transform="rotate(-135 58.5222 35.9996)" fill="#EE523C"/>
<rect x="51.7656" y="42.7564" width="3.18509" height="6.37017" transform="rotate(-135 51.7656 42.7564)" fill="#EE523C"/>
<rect x="45.009" y="49.5128" width="3.18509" height="6.37017" transform="rotate(-135 45.009 49.5128)" fill="#EE523C"/>
<rect x="38.2524" y="56.2696" width="3.18509" height="6.37017" transform="rotate(-135 38.2524 56.2696)" fill="#EE523C"/>
<rect x="31.4958" y="63.0261" width="3.18509" height="6.37017" transform="rotate(-135 31.4958 63.0261)" fill="#EE523C"/>
<rect x="24.7393" y="69.7828" width="3.18509" height="6.37017" transform="rotate(-135 24.7393 69.7828)" fill="#EE523C"/>
<rect x="17.9827" y="76.5392" width="3.18509" height="6.37017" transform="rotate(-135 17.9827 76.5392)" fill="#EE523C"/>
<rect x="72.0354" y="8.97339" width="3.18509" height="6.37017" transform="rotate(-135 72.0354 8.97339)" fill="#EE523C"/>
<rect x="65.2786" y="15.7302" width="3.18509" height="6.37017" transform="rotate(-135 65.2786 15.7302)" fill="#EE523C"/>
<rect x="58.5222" y="22.4866" width="3.18509" height="6.37017" transform="rotate(-135 58.5222 22.4866)" fill="#EE523C"/>
<rect x="51.7656" y="29.243" width="3.18509" height="6.37017" transform="rotate(-135 51.7656 29.243)" fill="#EE523C"/>
<rect x="45.009" y="35.9998" width="3.18509" height="6.37017" transform="rotate(-135 45.009 35.9998)" fill="#EE523C"/>
<rect x="38.2524" y="42.7562" width="3.18509" height="6.37017" transform="rotate(-135 38.2524 42.7562)" fill="#EE523C"/>
<rect x="31.4958" y="49.5131" width="3.18509" height="6.37017" transform="rotate(-135 31.4958 49.5131)" fill="#EE523C"/>
<rect x="24.7393" y="56.2695" width="3.18509" height="6.37017" transform="rotate(-135 24.7393 56.2695)" fill="#EE523C"/>
<rect x="17.9827" y="63.0262" width="3.18509" height="6.37017" transform="rotate(-135 17.9827 63.0262)" fill="#EE523C"/>
<rect x="11.2261" y="69.7827" width="3.18509" height="6.37017" transform="rotate(-135 11.2261 69.7827)" fill="#EE523C"/>
<rect x="4.46948" y="76.5395" width="3.18509" height="6.37017" transform="rotate(-135 4.46948 76.5395)" fill="#EE523C"/>
<rect x="65.2788" y="2.2168" width="3.18509" height="6.37017" transform="rotate(-135 65.2788 2.2168)" fill="#EE523C"/>
<rect x="58.5222" y="8.97357" width="3.18509" height="6.37017" transform="rotate(-135 58.5222 8.97357)" fill="#EE523C"/>
<rect x="51.7656" y="15.73" width="3.18509" height="6.37017" transform="rotate(-135 51.7656 15.73)" fill="#EE523C"/>
<rect x="45.009" y="22.4864" width="3.18509" height="6.37017" transform="rotate(-135 45.009 22.4864)" fill="#EE523C"/>
<rect x="38.2524" y="29.2432" width="3.18509" height="6.37017" transform="rotate(-135 38.2524 29.2432)" fill="#EE523C"/>
<rect x="31.4958" y="35.9996" width="3.18509" height="6.37017" transform="rotate(-135 31.4958 35.9996)" fill="#EE523C"/>
<rect x="24.7393" y="42.7564" width="3.18509" height="6.37017" transform="rotate(-135 24.7393 42.7564)" fill="#EE523C"/>
<rect x="17.9827" y="49.5128" width="3.18509" height="6.37017" transform="rotate(-135 17.9827 49.5128)" fill="#EE523C"/>
<rect x="11.2261" y="56.2697" width="3.18509" height="6.37017" transform="rotate(-135 11.2261 56.2697)" fill="#EE523C"/>
<rect x="4.46948" y="63.0261" width="3.18509" height="6.37017" transform="rotate(-135 4.46948 63.0261)" fill="#EE523C"/>
<rect x="-2.28711" y="69.7828" width="3.18509" height="6.37017" transform="rotate(-135 -2.28711 69.7828)" fill="#EE523C"/>
<rect x="51.7654" y="2.21716" width="3.18509" height="6.37017" transform="rotate(-135 51.7654 2.21716)" fill="#EE523C"/>
<rect x="45.009" y="8.97357" width="3.18509" height="6.37017" transform="rotate(-135 45.009 8.97357)" fill="#EE523C"/>
<rect x="38.2524" y="15.73" width="3.18509" height="6.37017" transform="rotate(-135 38.2524 15.73)" fill="#EE523C"/>
<rect x="31.4958" y="22.4868" width="3.18509" height="6.37017" transform="rotate(-135 31.4958 22.4868)" fill="#EE523C"/>
<rect x="24.7393" y="29.2432" width="3.18509" height="6.37017" transform="rotate(-135 24.7393 29.2432)" fill="#EE523C"/>
<rect x="17.9827" y="36.0001" width="3.18509" height="6.37017" transform="rotate(-135 17.9827 36.0001)" fill="#EE523C"/>
<rect x="11.2261" y="42.7565" width="3.18509" height="6.37017" transform="rotate(-135 11.2261 42.7565)" fill="#EE523C"/>
<rect x="4.46948" y="49.5132" width="3.18509" height="6.37017" transform="rotate(-135 4.46948 49.5132)" fill="#EE523C"/>
<rect x="-2.28711" y="56.2697" width="3.18509" height="6.37017" transform="rotate(-135 -2.28711 56.2697)" fill="#EE523C"/>
<rect x="38.2524" y="2.21698" width="3.18509" height="6.37017" transform="rotate(-135 38.2524 2.21698)" fill="#EE523C"/>
<rect x="31.4958" y="8.97339" width="3.18509" height="6.37017" transform="rotate(-135 31.4958 8.97339)" fill="#EE523C"/>
<rect x="24.7393" y="15.7302" width="3.18509" height="6.37017" transform="rotate(-135 24.7393 15.7302)" fill="#EE523C"/>
<rect x="17.9827" y="22.4866" width="3.18509" height="6.37017" transform="rotate(-135 17.9827 22.4866)" fill="#EE523C"/>
<rect x="11.2261" y="29.2434" width="3.18509" height="6.37017" transform="rotate(-135 11.2261 29.2434)" fill="#EE523C"/>
<rect x="4.46948" y="35.9998" width="3.18509" height="6.37017" transform="rotate(-135 4.46948 35.9998)" fill="#EE523C"/>
<rect x="-2.28711" y="42.7567" width="3.18509" height="6.37017" transform="rotate(-135 -2.28711 42.7567)" fill="#EE523C"/>
<rect x="24.7393" y="2.21674" width="3.18509" height="6.37017" transform="rotate(-135 24.7393 2.21674)" fill="#EE523C"/>
<rect x="17.9827" y="8.97351" width="3.18509" height="6.37017" transform="rotate(-135 17.9827 8.97351)" fill="#EE523C"/>
<rect x="11.2261" y="15.73" width="3.18509" height="6.37017" transform="rotate(-135 11.2261 15.73)" fill="#EE523C"/>
<rect x="4.46948" y="22.4868" width="3.18509" height="6.37017" transform="rotate(-135 4.46948 22.4868)" fill="#EE523C"/>
<rect x="-2.28711" y="29.2432" width="3.18509" height="6.37017" transform="rotate(-135 -2.28711 29.2432)" fill="#EE523C"/>
<rect x="11.2261" y="2.21692" width="3.18509" height="6.37017" transform="rotate(-135 11.2261 2.21692)" fill="#EE523C"/>
<rect x="4.46948" y="8.97333" width="3.18509" height="6.37017" transform="rotate(-135 4.46948 8.97333)" fill="#EE523C"/>
<rect x="-2.28711" y="15.7302" width="3.18509" height="6.37017" transform="rotate(-135 -2.28711 15.7302)" fill="#EE523C"/>
<rect x="-2.28711" y="2.21674" width="3.18509" height="6.37017" transform="rotate(-135 -2.28711 2.21674)" fill="#EE523C"/>
</g>
</svg>
